# xmcd
#
# Track frame offsets:
#       150
#       12342
#       31118
#       44955
#       58710
#       70606
#       88450
#       106423
#       116879
#       131304
#       142387
#       155995
#       170931
#       182825
#       194985
#       206820
#       225050
#       234609
#       247835
#       260683
#       275480
#       293005
#       310910
#       322514
#
# Disc length: 4515 seconds
#
# Revision: 1
# Processed by: cddbd v1.5.2PL0 Copyright (c) Steve Scherf et al.
# Submitted via: MusiCat 1.1
#
DISCID=7311a118
DTITLE=Chris Farlowe - Out Of Time - The Immediate Anthology [CD2]
DYEAR=1900
DGENRE=
TTITLE0=We're Doing Fine
TTITLE1=Life Is Not Nothing
TTITLE2=Paint It Black
TTITLE3=Cuttin' In
TTITLE4=Open The Door To Your Heart
TTITLE5=
TTITLE6=North South east West
TTITLE7=You're So Good For Me
TTITLE8=It's Easier To Hurt Her
TTITLE9=I'm free
TTITLE10=I've Been Loving You Too Long
TTITLE11=Reach Out I'll Be There
TTITLE12=My Way Of Giving
TTITLE13=Yesterday's Papers
TTITLE14=Moanin'
TTITLE15=What have I Been Doing
TTITLE16=Handbags and Gladrags
TTITLE17=Everyone Makes A Mistake
TTITLE18=Last Goodbye
TTITLE19=Paperman Fly In The Sky
TTITLE20=I Just Need Your Loving
TTITLE21=Dawn
TTITLE22=April Was The Month Moanin'
TTITLE23=Paint It Black (slow - mono single version)
EXTD=\n\n
EXTT0=
EXTT1=
EXTT2=
EXTT3=
EXTT4=
EXTT5=
EXTT6=
EXTT7=
EXTT8=
EXTT9=
EXTT10=
EXTT11=
EXTT12=
EXTT13=
EXTT14=
EXTT15=
EXTT16=
EXTT17=
EXTT18=
EXTT19=
EXTT20=
EXTT21=
EXTT22=
EXTT23=
PLAYORDER=
